<?xml version="1.0" encoding="utf-8"?>
<!-- Generator: Adobe Illustrator 19.1.0, SVG Export Plug-In . SVG Version: 6.00 Build 0)  -->
<svg version="1.1" xmlns="http://www.w3.org/2000/svg" xmlns:xlink="http://www.w3.org/1999/xlink" x="0px" y="0px"
	 viewBox="0 0 100 100" style="enable-background:new 0 0 100 100;" xml:space="preserve">
<style type="text/css">
	.st0{fill:#231F20;}
	.st1{fill:none;stroke:#231F20;stroke-width:0.6437;stroke-miterlimit:10;}
	.st2{fill:#FFFFFF;}
</style>
<g id="Titles">
	<rect x="-247.7" y="-139.8" style="fill:none;" width="58.5" height="15.5"/>
	<text transform="matrix(1 0 0 1 -247.6667 -131.3133)" style="font-family:'MyriadPro-Regular'; font-size:12px;">Standard</text>
	<rect x="-123.4" y="-139.8" style="fill:none;" width="58.5" height="15.5"/>
	<text transform="matrix(1 0 0 1 -123.4463 -131.3133)" style="font-family:'MyriadPro-Regular'; font-size:12px;">Inner Circle</text>
	<rect x="-249.8" y="109.2" style="fill:none;" width="73.4" height="15.5"/>
	<text transform="matrix(1 0 0 1 -249.7954 117.6867)" style="font-family:'MyriadPro-Regular'; font-size:12px;">Fill Standard</text>
	<rect x="-122.7" y="109.2" style="fill:none;" width="73.4" height="15.5"/>
	<text transform="matrix(1 0 0 1 -122.7247 117.6867)" style="font-family:'MyriadPro-Regular'; font-size:12px;">Fill Inner </text>
	<rect x="4.3" y="109.2" style="fill:none;" width="73.4" height="15.5"/>
	<text transform="matrix(1 0 0 1 4.346 117.6867)" style="font-family:'MyriadPro-Regular'; font-size:12px;">Initials Black</text>
	<rect x="131.4" y="109.2" style="fill:none;" width="73.4" height="15.5"/>
	<text transform="matrix(1 0 0 1 131.4167 117.6867)" style="font-family:'MyriadPro-Regular'; font-size:12px;">Initials White</text>
</g>
<g id="Layer_1">
	<g>
		<path class="st0" d="M-163.3-67.9c0,20.1-16.3,36.3-36.3,36.3c-20.1,0-36.3-16.3-36.3-36.3c0-20.1,16.3-36.3,36.3-36.3
			C-179.5-104.2-163.3-87.9-163.3-67.9z"/>
		<circle class="st1" cx="-199.6" cy="-67.9" r="39.1"/>
		<g>
			<path class="st2" d="M-181.4-79.2c-3.3-3.6-8.4-5.4-15.2-5.4h-8.6v24.2h4.8v-19.5h2.5c3.6,0,6.5,0.4,8.6,1.1
				c2.1,0.8,4,2.2,5.5,4.5c1.5,2.2,2.3,4.7,2.3,7.4c0,2.2-0.5,4.2-1.4,6c-1,1.8-2.3,3.3-3.9,4.4c-1.6,1.1-3.4,1.8-5.2,2.1
				c-1.8,0.3-4.5,0.5-8.1,0.5h-0.2v0h-4.9v0h-6.7v-30.7h-4.8v35.5h16.4v0h3.8c6.6,0,11.6-1.8,15-5.4c3.4-3.6,5.2-7.7,5.2-12.4
				C-176.4-71.5-178-75.6-181.4-79.2z"/>
		</g>
	</g>
	<path class="st0" d="M-37.7-68.3C-37.7-48.3-53.9-32-74-32c-20.1,0-36.3-16.3-36.3-36.3c0-20.1,16.3-36.3,36.3-36.3
		C-53.9-104.7-37.7-88.4-37.7-68.3z"/>
	<g>
		<path class="st2" d="M-55.8-79.7c-3.3-3.6-8.4-5.4-15.2-5.4h-8.6v24.2h4.8v-19.5h2.5c3.6,0,6.5,0.4,8.6,1.1c2.1,0.8,4,2.2,5.5,4.5
			c1.5,2.2,2.3,4.7,2.3,7.4c0,2.2-0.5,4.2-1.4,6c-1,1.8-2.3,3.3-3.9,4.4c-1.6,1.1-3.4,1.8-5.2,2.1c-1.8,0.3-4.5,0.5-8.1,0.5h-0.2v0
			h-4.9v0h-6.7v-30.7h-4.8v35.5h16.4v0h3.8c6.6,0,11.6-1.8,15-5.4c3.4-3.6,5.2-7.7,5.2-12.4C-50.8-72-52.5-76.1-55.8-79.7z"/>
	</g>
	<g>
		<path class="st0" d="M-152.2,50c0,25.6-20.8,46.4-46.4,46.4c-25.6,0-46.4-20.8-46.4-46.4c0-25.6,20.8-46.4,46.4-46.4
			C-173,3.6-152.2,24.4-152.2,50z"/>
		<circle class="st1" cx="-198.7" cy="50" r="50"/>
		<g>
			<path class="st2" d="M-175.4,35.5c-4.3-4.6-10.7-6.9-19.4-6.9h-11v31h6.2V34.6h3.1c4.6,0,8.3,0.5,11.1,1.5c2.7,1,5.1,2.9,7.1,5.7
				c2,2.8,3,6,3,9.5c0,2.8-0.6,5.3-1.9,7.6c-1.2,2.3-2.9,4.2-5,5.6c-2.1,1.4-4.3,2.3-6.6,2.7c-2.3,0.4-5.8,0.6-10.4,0.6h-0.3v0h-6.3
				v0h-8.6V28.6h-6.1V74h20.9v0h4.9c8.4,0,14.8-2.3,19.2-6.9c4.4-4.6,6.6-9.9,6.6-15.8C-169,45.4-171.1,40.1-175.4,35.5z"/>
		</g>
	</g>
	<path class="st0" d="M-24.7,50.1c0,27.3-22.1,49.4-49.4,49.4c-27.3,0-49.4-22.1-49.4-49.4c0-27.3,22.1-49.4,49.4-49.4
		C-46.8,0.7-24.7,22.8-24.7,50.1z"/>
	<g>
		<path class="st2" d="M-49.3,34.6c-4.5-4.9-11.4-7.3-20.7-7.3h-11.7v33h6.6V33.7h3.3c4.9,0,8.8,0.5,11.8,1.6c2.9,1,5.4,3.1,7.5,6.1
			c2.1,3,3.1,6.4,3.1,10.1c0,3-0.7,5.7-2,8.1c-1.3,2.5-3.1,4.4-5.3,5.9c-2.2,1.5-4.6,2.5-7,2.9c-2.5,0.4-6.2,0.7-11.1,0.7H-75v0
			h-6.7v0h-9.1V27.3h-6.5v48.3h22.2v0h5.2c8.9,0,15.7-2.4,20.4-7.3c4.7-4.9,7-10.5,7-16.8C-42.5,45.1-44.8,39.5-49.3,34.6z"/>
	</g>
	<g>
		<path class="st0" d="M81.4,26.9c-6.6-7.2-16.7-10.7-30.2-10.7H34.2v48.1h9.6V25.6h4.9c7.2,0,12.9,0.8,17.2,2.3
			c4.3,1.5,7.9,4.5,11,8.8c3.1,4.4,4.6,9.3,4.6,14.7c0,4.3-1,8.3-2.9,11.9c-1.9,3.6-4.5,6.5-7.7,8.7c-3.2,2.2-6.7,3.6-10.3,4.2
			c-3.6,0.6-9,1-16.1,1h-0.5v0h-9.7v0H20.8V16.2h-9.5v70.5h32.5v0h7.6c13,0,22.9-3.6,29.8-10.7c6.8-7.1,10.2-15.3,10.2-24.6
			C91.3,42.2,88,34.1,81.4,26.9z"/>
	</g>
	<g>
		<path class="st2" d="M214.4,25.2c-6.6-7.2-16.7-10.7-30.2-10.7h-17.1v48.1h9.6V23.9h4.9c7.2,0,12.9,0.8,17.2,2.3
			c4.3,1.5,7.9,4.5,11,8.8c3.1,4.4,4.6,9.3,4.6,14.7c0,4.3-1,8.3-2.9,11.9c-1.9,3.6-4.5,6.5-7.7,8.7c-3.2,2.2-6.7,3.6-10.3,4.2
			c-3.6,0.6-9,1-16.1,1h-0.5v0h-9.7v0h-13.3V14.5h-9.5V85h32.5v0h7.6c13,0,22.9-3.6,29.8-10.7c6.8-7.1,10.2-15.3,10.2-24.6
			C224.2,40.5,221,32.4,214.4,25.2z"/>
	</g>
</g>
</svg>
