<?xml version="1.0" encoding="utf-8"?>
<!-- Generator: Adobe Illustrator 19.1.0, SVG Export Plug-In . SVG Version: 6.00 Build 0)  -->
<svg version="1.1" xmlns="http://www.w3.org/2000/svg" xmlns:xlink="http://www.w3.org/1999/xlink" x="0px" y="0px"
	 viewBox="0 0 100 100" style="enable-background:new 0 0 100 100;" xml:space="preserve">
<style type="text/css">
	.st0{fill:#231F20;}
	.st1{fill:none;stroke:#231F20;stroke-width:0.6437;stroke-miterlimit:10;}
	.st2{fill:#FFFFFF;}
</style>
<g id="Titles">
	<rect x="-123.7" y="-139.8" style="fill:none;" width="58.5" height="15.5"/>
	<text transform="matrix(1 0 0 1 -123.6667 -131.3133)" style="font-family:'MyriadPro-Regular'; font-size:12px;">Standard</text>
	<rect x="0.6" y="-139.8" style="fill:none;" width="58.5" height="15.5"/>
	<text transform="matrix(1 0 0 1 0.5537 -131.3133)" style="font-family:'MyriadPro-Regular'; font-size:12px;">Inner Circle</text>
	<rect x="-125.8" y="109.2" style="fill:none;" width="73.4" height="15.5"/>
	<text transform="matrix(1 0 0 1 -125.7954 117.6867)" style="font-family:'MyriadPro-Regular'; font-size:12px;">Fill Standard</text>
	<rect x="1.3" y="109.2" style="fill:none;" width="73.4" height="15.5"/>
	<text transform="matrix(1 0 0 1 1.2753 117.6867)" style="font-family:'MyriadPro-Regular'; font-size:12px;">Fill Inner </text>
	<rect x="128.3" y="109.2" style="fill:none;" width="73.4" height="15.5"/>
	<text transform="matrix(1 0 0 1 128.346 117.6867)" style="font-family:'MyriadPro-Regular'; font-size:12px;">Initials Black</text>
	<rect x="255.4" y="109.2" style="fill:none;" width="73.4" height="15.5"/>
	<text transform="matrix(1 0 0 1 255.4167 117.6867)" style="font-family:'MyriadPro-Regular'; font-size:12px;">Initials White</text>
</g>
<g id="Layer_1">
	<g>
		<path class="st0" d="M-39.3-67.9c0,20.1-16.3,36.3-36.3,36.3c-20.1,0-36.3-16.3-36.3-36.3c0-20.1,16.3-36.3,36.3-36.3
			C-55.5-104.2-39.3-87.9-39.3-67.9z"/>
		<circle class="st1" cx="-75.6" cy="-67.9" r="39.1"/>
		<g>
			<path class="st2" d="M-57.4-79.2c-3.3-3.6-8.4-5.4-15.2-5.4h-8.6v24.2h4.8v-19.5h2.5c3.6,0,6.5,0.4,8.6,1.1
				c2.1,0.8,4,2.2,5.5,4.5c1.5,2.2,2.3,4.7,2.3,7.4c0,2.2-0.5,4.2-1.4,6c-1,1.8-2.3,3.3-3.9,4.4c-1.6,1.1-3.4,1.8-5.2,2.1
				c-1.8,0.3-4.5,0.5-8.1,0.5h-0.2v0h-4.9v0h-6.7v-30.7h-4.8v35.5h16.4v0h3.8c6.6,0,11.6-1.8,15-5.4c3.4-3.6,5.2-7.7,5.2-12.4
				C-52.4-71.5-54-75.6-57.4-79.2z"/>
		</g>
	</g>
	<path class="st0" d="M86.3-68.3C86.3-48.3,70.1-32,50-32c-20.1,0-36.3-16.3-36.3-36.3c0-20.1,16.3-36.3,36.3-36.3
		C70.1-104.7,86.3-88.4,86.3-68.3z"/>
	<g>
		<path class="st2" d="M68.2-79.7c-3.3-3.6-8.4-5.4-15.2-5.4h-8.6v24.2h4.8v-19.5h2.5c3.6,0,6.5,0.4,8.6,1.1c2.1,0.8,4,2.2,5.5,4.5
			c1.5,2.2,2.3,4.7,2.3,7.4c0,2.2-0.5,4.2-1.4,6c-1,1.8-2.3,3.3-3.9,4.4c-1.6,1.1-3.4,1.8-5.2,2.1c-1.8,0.3-4.5,0.5-8.1,0.5h-0.2v0
			h-4.9v0h-6.7v-30.7h-4.8v35.5h16.4v0H53c6.6,0,11.6-1.8,15-5.4c3.4-3.6,5.2-7.7,5.2-12.4C73.2-72,71.5-76.1,68.2-79.7z"/>
	</g>
	<g>
		<path class="st0" d="M-30.1,49.4c0,24.8-20.1,44.9-44.9,44.9c-24.8,0-44.9-20.1-44.9-44.9c0-24.8,20.1-44.9,44.9-44.9
			C-50.2,4.5-30.1,24.6-30.1,49.4z"/>
		<circle class="st1" cx="-75.1" cy="49.4" r="48.4"/>
		<g>
			<path class="st2" d="M-52.5,35.4c-4.1-4.5-10.4-6.7-18.8-6.7H-82v30h6V34.5h3c4.5,0,8,0.5,10.7,1.4c2.7,0.9,4.9,2.8,6.8,5.5
				c1.9,2.7,2.9,5.8,2.9,9.2c0,2.7-0.6,5.2-1.8,7.4c-1.2,2.2-2.8,4-4.8,5.4c-2,1.4-4.2,2.2-6.4,2.6c-2.3,0.4-5.6,0.6-10.1,0.6H-76v0
				H-82v0h-8.3v-38h-5.9v43.9H-76v0h4.7c8.1,0,14.3-2.2,18.5-6.7c4.3-4.4,6.4-9.5,6.4-15.3C-46.4,44.9-48.4,39.8-52.5,35.4z"/>
		</g>
	</g>
	<path class="st0" d="M99.3,50c0,27.3-22.1,49.4-49.4,49.4C22.7,99.4,0.6,77.3,0.6,50c0-27.3,22.1-49.4,49.4-49.4
		C77.2,0.6,99.3,22.7,99.3,50z"/>
	<g>
		<path class="st2" d="M74.7,34c-4.5-4.9-11.4-7.3-20.7-7.3H42.3v33h6.6V33.1h3.3c4.9,0,8.8,0.5,11.8,1.6c2.9,1,5.4,3.1,7.5,6.1
			c2.1,3,3.1,6.4,3.1,10.1c0,3-0.7,5.7-2,8.1c-1.3,2.5-3.1,4.4-5.3,5.9c-2.2,1.5-4.6,2.5-7,2.9c-2.5,0.4-6.2,0.7-11.1,0.7H49v0h-6.7
			v0h-9.1V26.7h-6.5v48.3h22.2v0h5.2c8.9,0,15.7-2.4,20.4-7.3c4.7-4.9,7-10.5,7-16.8C81.5,44.5,79.2,38.9,74.7,34z"/>
	</g>
	<g>
		<path class="st0" d="M205.4,26.9c-6.6-7.2-16.7-10.7-30.2-10.7h-17.1v48.1h9.6V25.6h4.9c7.2,0,12.9,0.8,17.2,2.3
			c4.3,1.5,7.9,4.5,11,8.8c3.1,4.4,4.6,9.3,4.6,14.7c0,4.3-1,8.3-2.9,11.9c-1.9,3.6-4.5,6.5-7.7,8.7c-3.2,2.2-6.7,3.6-10.3,4.2
			c-3.6,0.6-9,1-16.1,1h-0.5v0h-9.7v0h-13.3V16.2h-9.5v70.5h32.5v0h7.6c13,0,22.9-3.6,29.8-10.7c6.8-7.1,10.2-15.3,10.2-24.6
			C215.3,42.2,212,34.1,205.4,26.9z"/>
	</g>
	<g>
		<path class="st2" d="M338.4,25.2c-6.6-7.2-16.7-10.7-30.2-10.7h-17.1v48.1h9.6V23.9h4.9c7.2,0,12.9,0.8,17.2,2.3
			c4.3,1.5,7.9,4.5,11,8.8c3.1,4.4,4.6,9.3,4.6,14.7c0,4.3-1,8.3-2.9,11.9c-1.9,3.6-4.5,6.5-7.7,8.7c-3.2,2.2-6.7,3.6-10.3,4.2
			c-3.6,0.6-9,1-16.1,1h-0.5v0h-9.7v0h-13.3V14.5h-9.5V85h32.5v0h7.6c13,0,22.9-3.6,29.8-10.7c6.8-7.1,10.2-15.3,10.2-24.6
			C348.2,40.5,345,32.4,338.4,25.2z"/>
	</g>
</g>
</svg>
