<?xml version="1.0" encoding="utf-8"?>
<!-- Generator: Adobe Illustrator 19.1.0, SVG Export Plug-In . SVG Version: 6.00 Build 0)  -->
<svg version="1.1" xmlns="http://www.w3.org/2000/svg" xmlns:xlink="http://www.w3.org/1999/xlink" x="0px" y="0px"
	 viewBox="0 0 100 100" style="enable-background:new 0 0 100 100;" xml:space="preserve">
<style type="text/css">
	.st0{fill:#231F20;}
	.st1{fill:none;stroke:#231F20;stroke-width:0.6437;stroke-miterlimit:10;}
	.st2{fill:#FFFFFF;}
</style>
<g id="Titles">
	<rect x="-379.1" y="-139.9" style="fill:none;" width="58.5" height="15.5"/>
	<text transform="matrix(1 0 0 1 -379.0833 -131.3967)" style="font-family:'MyriadPro-Regular'; font-size:12px;">Standard</text>
	<rect x="-254.9" y="-139.9" style="fill:none;" width="58.5" height="15.5"/>
	<text transform="matrix(1 0 0 1 -254.863 -131.3967)" style="font-family:'MyriadPro-Regular'; font-size:12px;">Inner Circle</text>
	<rect x="-381.2" y="109.1" style="fill:none;" width="73.4" height="15.5"/>
	<text transform="matrix(1 0 0 1 -381.2121 117.6034)" style="font-family:'MyriadPro-Regular'; font-size:12px;">Fill Standard</text>
	<rect x="-254.1" y="109.1" style="fill:none;" width="73.4" height="15.5"/>
	<text transform="matrix(1 0 0 1 -254.1414 117.6034)" style="font-family:'MyriadPro-Regular'; font-size:12px;">Fill Inner </text>
	<rect x="-127.1" y="109.1" style="fill:none;" width="73.4" height="15.5"/>
	<text transform="matrix(1 0 0 1 -127.0707 117.6034)" style="font-family:'MyriadPro-Regular'; font-size:12px;">Initials Black</text>
	<rect x="0" y="109.1" style="fill:none;" width="73.4" height="15.5"/>
	<text transform="matrix(1 0 0 1 1.017253e-05 117.6034)" style="font-family:'MyriadPro-Regular'; font-size:12px;">Initials White</text>
</g>
<g id="Layer_1">
	<g>
		<path class="st0" d="M-294.7-68c0,20.1-16.3,36.3-36.3,36.3c-20.1,0-36.3-16.3-36.3-36.3c0-20.1,16.3-36.3,36.3-36.3
			C-310.9-104.3-294.7-88-294.7-68z"/>
		<circle class="st1" cx="-331" cy="-68" r="39.1"/>
		<g>
			<path class="st2" d="M-312.8-79.3c-3.3-3.6-8.4-5.4-15.2-5.4h-8.6v24.2h4.8V-80h2.5c3.6,0,6.5,0.4,8.6,1.1c2.1,0.8,4,2.2,5.5,4.5
				c1.5,2.2,2.3,4.7,2.3,7.4c0,2.2-0.5,4.2-1.4,6c-1,1.8-2.3,3.3-3.9,4.4c-1.6,1.1-3.4,1.8-5.2,2.1c-1.8,0.3-4.5,0.5-8.1,0.5h-0.2v0
				h-4.9v0h-6.7v-30.7h-4.8v35.5h16.4v0h3.8c6.6,0,11.6-1.8,15-5.4c3.4-3.6,5.2-7.7,5.2-12.4C-307.8-71.6-309.5-75.7-312.8-79.3z"/>
		</g>
	</g>
	<path class="st0" d="M-169.1-68.4c0,20.1-16.3,36.3-36.3,36.3c-20.1,0-36.3-16.3-36.3-36.3c0-20.1,16.3-36.3,36.3-36.3
		C-185.4-104.7-169.1-88.5-169.1-68.4z"/>
	<g>
		<path class="st2" d="M-187.2-79.8c-3.3-3.6-8.4-5.4-15.2-5.4h-8.6v24.2h4.8v-19.5h2.5c3.6,0,6.5,0.4,8.6,1.1
			c2.1,0.8,4,2.2,5.5,4.5c1.5,2.2,2.3,4.7,2.3,7.4c0,2.2-0.5,4.2-1.4,6c-1,1.8-2.3,3.3-3.9,4.4c-1.6,1.1-3.4,1.8-5.2,2.1
			c-1.8,0.3-4.5,0.5-8.1,0.5h-0.2v0h-4.9v0h-6.7v-30.7h-4.8v35.5h16.4v0h3.8c6.6,0,11.6-1.8,15-5.4c3.4-3.6,5.2-7.7,5.2-12.4
			C-182.2-72.1-183.9-76.2-187.2-79.8z"/>
	</g>
	<g>
		<path class="st0" d="M-283.7,49.9c0,25.6-20.8,46.4-46.4,46.4c-25.6,0-46.4-20.8-46.4-46.4c0-25.6,20.8-46.4,46.4-46.4
			C-304.4,3.5-283.7,24.3-283.7,49.9z"/>
		<circle class="st1" cx="-330.1" cy="49.9" r="50"/>
		<g>
			<path class="st2" d="M-306.8,35.4c-4.3-4.6-10.7-6.9-19.4-6.9h-11v31h6.2V34.6h3.1c4.6,0,8.3,0.5,11.1,1.5c2.7,1,5.1,2.9,7.1,5.7
				c2,2.8,3,6,3,9.5c0,2.8-0.6,5.3-1.9,7.6c-1.2,2.3-2.9,4.2-5,5.6c-2.1,1.4-4.3,2.3-6.6,2.7c-2.3,0.4-5.8,0.6-10.4,0.6h-0.3v0h-6.3
				v0h-8.6V28.5h-6.1v45.4h20.9v0h4.9c8.4,0,14.8-2.3,19.2-6.9c4.4-4.6,6.6-9.9,6.6-15.8C-300.4,45.3-302.6,40-306.8,35.4z"/>
		</g>
	</g>
	<path class="st0" d="M-156.1,50c0,27.3-22.1,49.4-49.4,49.4c-27.3,0-49.4-22.1-49.4-49.4c0-27.3,22.1-49.4,49.4-49.4
		C-178.2,0.6-156.1,22.7-156.1,50z"/>
	<g>
		<path class="st2" d="M-180.7,34.5c-4.5-4.9-11.4-7.3-20.7-7.3h-11.7v33h6.6V33.6h3.3c4.9,0,8.8,0.5,11.8,1.6
			c2.9,1,5.4,3.1,7.5,6.1c2.1,3,3.1,6.4,3.1,10.1c0,3-0.7,5.7-2,8.1c-1.3,2.5-3.1,4.4-5.3,5.9c-2.2,1.5-4.6,2.5-7,2.9
			c-2.5,0.4-6.2,0.7-11.1,0.7h-0.3v0h-6.7v0h-9.1V27.2h-6.5v48.3h22.2v0h5.2c8.9,0,15.7-2.4,20.4-7.3c4.7-4.9,7-10.5,7-16.8
			C-173.9,45-176.2,39.4-180.7,34.5z"/>
	</g>
	<g>
		<path class="st0" d="M-50,26.8c-6.6-7.2-16.7-10.7-30.2-10.7h-17.1v48.1h9.6V25.5h4.9c7.2,0,12.9,0.8,17.2,2.3
			c4.3,1.5,7.9,4.5,11,8.8c3.1,4.4,4.6,9.3,4.6,14.7c0,4.3-1,8.3-2.9,11.9c-1.9,3.6-4.5,6.5-7.7,8.7c-3.2,2.2-6.7,3.6-10.3,4.2
			c-3.6,0.6-9,1-16.1,1h-0.5v0h-9.7v0h-13.3V16.1h-9.5v70.5h32.5v0h7.6c13,0,22.9-3.6,29.8-10.7c6.8-7.1,10.2-15.3,10.2-24.6
			C-40.1,42.1-43.4,34-50,26.8z"/>
	</g>
	<g>
		<path class="st2" d="M82.9,25.1C76.3,18,66.3,14.4,52.7,14.4H35.7v48.1h9.6V23.8h4.9c7.2,0,12.9,0.8,17.2,2.3
			c4.3,1.5,7.9,4.5,11,8.8c3.1,4.4,4.6,9.3,4.6,14.7c0,4.3-1,8.3-2.9,11.9c-1.9,3.6-4.5,6.5-7.7,8.7c-3.2,2.2-6.7,3.6-10.3,4.2
			c-3.6,0.6-9,1-16.1,1h-0.5v0h-9.7v0H22.3V14.4h-9.5v70.5h32.5v0h7.6c13,0,22.9-3.6,29.8-10.7c6.8-7.1,10.2-15.3,10.2-24.6
			C92.8,40.5,89.5,32.3,82.9,25.1z"/>
	</g>
</g>
</svg>
